<?xml version="1.0" encoding="utf-8"?>
<!-- Generator: Adobe Illustrator 17.0.2, SVG Export Plug-In . SVG Version: 6.00 Build 0)  -->
<!DOCTYPE svg PUBLIC "-//W3C//DTD SVG 1.1//EN" "http://www.w3.org/Graphics/SVG/1.1/DTD/svg11.dtd">
<svg version="1.1" id="Layer_1" xmlns="http://www.w3.org/2000/svg" xmlns:xlink="http://www.w3.org/1999/xlink" x="0px" y="0px"
	 width="141.732px" height="141.732px" viewBox="0 0 141.732 141.732" enable-background="new 0 0 141.732 141.732"
	 xml:space="preserve">
<g>
	<g>
		<g>
			<path fill="#2c3238" d="M73.494,97.633c-2.38,0-4.31-1.93-4.31-4.31V65.315c0-2.38,1.93-4.31,4.31-4.31
				c2.38,0,4.31,1.93,4.31,4.31v28.008C77.804,95.703,75.874,97.633,73.494,97.633z"/>
		</g>
		<g>
			<path fill="#2c3238" d="M73.494,54.746c-2.619,0-4.741-2.123-4.741-4.741v-0.087c0-2.619,2.123-4.741,4.741-4.741
				c2.619,0,4.741,2.123,4.741,4.741v0.087C78.235,52.623,76.112,54.746,73.494,54.746z"/>
		</g>
	</g>
	<g>
		<path fill="#2c3238" d="M73.494,108.749c-20.889,0-37.883-16.994-37.883-37.882c0-20.888,16.994-37.882,37.883-37.882
			c20.888,0,37.882,16.994,37.882,37.882C111.376,91.755,94.382,108.749,73.494,108.749z M73.494,41.604
			c-16.135,0-29.262,13.127-29.262,29.262s13.127,29.262,29.262,29.262c16.135,0,29.262-13.127,29.262-29.262
			S89.629,41.604,73.494,41.604z"/>
	</g>
</g>
</svg>
