<?xml version="1.0" encoding="utf-8"?>
<!-- Generator: Adobe Illustrator 17.0.2, SVG Export Plug-In . SVG Version: 6.00 Build 0)  -->
<!DOCTYPE svg PUBLIC "-//W3C//DTD SVG 1.1//EN" "http://www.w3.org/Graphics/SVG/1.1/DTD/svg11.dtd">
<svg version="1.1" id="Layer_1" xmlns="http://www.w3.org/2000/svg" xmlns:xlink="http://www.w3.org/1999/xlink" x="0px" y="0px"
	 width="141.732px" height="141.732px" viewBox="0 0 141.732 141.732" enable-background="new 0 0 141.732 141.732"
	 xml:space="preserve">
<g>
	<path fill="#2c3238" d="M108.147,90.49c0-3.688,0-7.377,0-11.065c0-4.587,0-9.175,0-13.762c0-3.95,0-7.901,0-11.851
		c0-1.561-1.267-3.279-2.829-3.696c-3.682-0.99-7.364-1.45-11.047-1.554c-3.899-0.11-7.799,0.181-11.698,0.668
		c-3.44,0.429-6.881,1.011-10.322,1.604c-4.282,0.739-8.563,1.495-12.845,1.999c-3.899,0.459-7.799,0.708-11.698,0.543
		c-3.415-0.145-6.83-0.607-10.245-1.526c-1.562-0.418-2.829,0.398-2.829,1.961c0,3.721,0,7.442,0,11.163c0,4.587,0,9.175,0,13.762
		c0,3.918,0,7.835,0,11.753c0,1.561,1.267,3.279,2.829,3.696c4.027,1.082,8.054,1.532,12.08,1.573
		c3.593,0.037,7.187-0.25,10.78-0.703c3.899-0.49,7.799-1.175,11.698-1.848c3.593-0.62,7.187-1.231,10.78-1.673
		c3.517-0.432,7.034-0.701,10.551-0.658c3.988,0.049,7.976,0.5,11.964,1.572C106.88,92.869,108.147,92.054,108.147,90.49z
		 M61.765,84.082c-0.821,0.378-1.618,0.586-2.393,0.624c-0.411,0.02-0.843-0.02-1.298-0.119c-0.455-0.1-0.949-0.238-1.482-0.418
		c-0.272-0.095-0.544-0.193-0.816-0.295c-0.353-0.128-0.645-0.232-0.873-0.305c-0.38-0.104-0.767-0.178-1.163-0.226
		c-0.423-0.05-0.876-0.032-1.358,0.051c-0.314,0.065-0.891,0.217-1.732,0.401c-0.568-1.045-1.136-2.106-1.705-3.185
		c0.665-0.159,1.339-0.563,2.023-1.215c0.684-0.655,1.004-1.392,0.961-2.166c-0.023-0.412-0.124-0.891-0.304-1.443
		c-0.102-0.314-0.266-0.742-0.492-1.286c-0.842-0.166-1.686-0.373-2.533-0.624c-0.029-0.522-0.058-1.045-0.087-1.567
		c0.542,0.161,1.083,0.304,1.623,0.429c-0.482-0.941-0.846-1.765-1.09-2.46c-0.244-0.695-0.387-1.414-0.427-2.15
		c-0.08-1.441,0.456-2.535,1.6-3.413c1.144-0.883,2.828-1.169,5.041-1.093c1.837,0.061,3.45,0.474,4.846,1.362
		c1.396,0.884,2.2,2.482,2.417,4.879c-1.258,0.173-2.519,0.302-3.782,0.369c-0.145-0.918-0.4-1.653-0.768-2.209
		c-0.539-0.776-1.396-1.145-2.578-1.185c-0.872-0.031-1.548,0.179-2.026,0.663c-0.478,0.483-0.699,1.066-0.66,1.766
		c0.023,0.42,0.137,0.872,0.341,1.355c0.204,0.482,0.654,1.414,1.346,2.769c1.348,0.106,2.691,0.122,4.031,0.068
		c0.029,0.522,0.058,1.045,0.087,1.567c-1.139,0.046-2.28,0.042-3.425-0.026c0.057,0.367,0.105,0.673,0.142,0.916
		c0.037,0.245,0.062,0.488,0.076,0.731c0.05,0.896-0.177,1.717-0.679,2.44c-0.322,0.447-0.986,1.115-1.998,1.925
		c0.74-0.15,1.286-0.266,1.639-0.313c0.565-0.092,1.12-0.127,1.664-0.104c0.338,0.015,0.669,0.05,0.995,0.109
		c0.326,0.059,0.674,0.136,1.044,0.23c0.195,0.056,0.39,0.111,0.585,0.163c0.256,0.074,0.472,0.118,0.645,0.132
		c0.174,0.014,0.321,0.017,0.443,0.01c0.429-0.026,0.925-0.183,1.489-0.479c0.327-0.17,0.734-0.426,1.22-0.773
		c0.438,0.989,0.876,1.973,1.314,2.953C63.219,83.314,62.586,83.703,61.765,84.082z M78.99,80.56
		c-0.816,0.465-1.607,0.79-2.374,0.966c-0.407,0.094-0.834,0.139-1.283,0.137c-0.449-0.002-0.937-0.025-1.463-0.068
		c-0.268-0.025-0.536-0.05-0.804-0.075c-0.348-0.029-0.634-0.045-0.859-0.048c-0.373,0.013-0.754,0.065-1.142,0.155
		c-0.415,0.096-0.859,0.281-1.33,0.554c-0.308,0.189-0.871,0.571-1.691,1.133c-0.555-0.819-1.11-1.642-1.666-2.469
		c0.646-0.489,1.303-1.215,1.97-2.175c0.667-0.961,0.979-1.834,0.936-2.61c-0.023-0.412-0.123-0.862-0.299-1.353
		c-0.1-0.28-0.261-0.652-0.483-1.115c-0.823,0.178-1.646,0.348-2.47,0.505c-0.029-0.522-0.058-1.045-0.087-1.567
		c0.528-0.1,1.055-0.206,1.582-0.316c-0.472-0.751-0.827-1.426-1.066-2.025c-0.239-0.599-0.379-1.267-0.419-2.003
		c-0.079-1.438,0.439-2.834,1.555-4.223c1.116-1.388,2.764-2.342,4.943-2.863c1.81-0.431,3.407-0.293,4.794,0.43
		c1.387,0.723,2.19,2.299,2.406,4.688c-1.254,0.244-2.506,0.518-3.758,0.805c-0.144-0.902-0.397-1.599-0.761-2.091
		c-0.534-0.679-1.382-0.881-2.546-0.604c-0.859,0.204-1.523,0.633-1.992,1.285c-0.469,0.653-0.684,1.327-0.645,2.027
		c0.023,0.42,0.135,0.84,0.336,1.261c0.201,0.422,0.643,1.214,1.324,2.376c1.325-0.312,2.65-0.632,3.975-0.938
		c0.029,0.522,0.058,1.045,0.087,1.567c-1.127,0.261-2.253,0.53-3.38,0.798c0.057,0.356,0.104,0.652,0.14,0.89
		c0.037,0.238,0.062,0.477,0.075,0.721c0.049,0.897-0.172,1.793-0.665,2.685c-0.315,0.557-0.968,1.446-1.958,2.654
		c0.724-0.433,1.26-0.734,1.606-0.898c0.555-0.279,1.101-0.482,1.636-0.609c0.333-0.078,0.659-0.129,0.981-0.149
		c0.322-0.02,0.665-0.023,1.031-0.007c0.193,0.015,0.385,0.03,0.578,0.045c0.254,0.025,0.467,0.028,0.639,0.012
		c0.172-0.016,0.318-0.038,0.438-0.066c0.425-0.096,0.917-0.328,1.477-0.692c0.325-0.21,0.73-0.511,1.213-0.897
		c0.436,0.959,0.873,1.919,1.31,2.883C80.437,79.669,79.806,80.094,78.99,80.56z M96.372,79.889
		c-0.836,0.103-1.645,0.111-2.427,0.01c-0.415-0.053-0.85-0.153-1.308-0.298c-0.457-0.145-0.953-0.312-1.487-0.497
		c-0.272-0.098-0.544-0.192-0.815-0.283c-0.352-0.115-0.643-0.196-0.87-0.249c-0.378-0.069-0.763-0.096-1.155-0.079
		c-0.42,0.018-0.867,0.127-1.343,0.329c-0.31,0.145-0.878,0.443-1.703,0.928c-0.558-0.865-1.115-1.722-1.671-2.572
		c0.648-0.46,1.308-1.134,1.979-2.017c0.672-0.882,0.987-1.698,0.944-2.476c-0.023-0.411-0.124-0.873-0.301-1.384
		c-0.101-0.292-0.263-0.683-0.486-1.168c-0.828,0.078-1.655,0.179-2.481,0.299c-0.029-0.522-0.058-1.045-0.087-1.567
		c0.529-0.077,1.058-0.146,1.588-0.206c-0.474-0.79-0.831-1.489-1.07-2.1c-0.24-0.612-0.38-1.285-0.42-2.022
		c-0.079-1.434,0.44-2.814,1.564-4.076c1.123-1.254,2.784-1.969,4.996-1.905c1.836,0.057,3.466,0.77,4.884,2.048
		c1.418,1.283,2.241,3.219,2.459,5.644c-1.288-0.362-2.569-0.62-3.846-0.792c-0.146-0.936-0.404-1.711-0.774-2.318
		c-0.543-0.847-1.407-1.33-2.588-1.366c-0.871-0.026-1.543,0.253-2.018,0.804c-0.475,0.552-0.692,1.184-0.653,1.883
		c0.023,0.42,0.136,0.856,0.339,1.31c0.203,0.455,0.648,1.321,1.337,2.62c1.342-0.013,2.688,0.05,4.039,0.208
		c0.029,0.522,0.058,1.045,0.087,1.567c-1.149-0.134-2.293-0.2-3.435-0.209c0.057,0.365,0.105,0.669,0.141,0.912
		c0.037,0.243,0.062,0.487,0.076,0.73c0.05,0.898-0.176,1.723-0.676,2.496c-0.32,0.482-0.981,1.216-1.98,2.258
		c0.731-0.316,1.272-0.507,1.623-0.598c0.561-0.161,1.114-0.234,1.657-0.222c0.337,0.008,0.669,0.048,0.996,0.121
		c0.327,0.073,0.676,0.173,1.048,0.306c0.196,0.076,0.392,0.154,0.589,0.234c0.258,0.109,0.476,0.188,0.651,0.234
		c0.176,0.046,0.325,0.077,0.447,0.095c0.434,0.063,0.937,0.027,1.51-0.095c0.333-0.069,0.747-0.189,1.244-0.346
		c0.446,1.133,0.893,2.276,1.34,3.428C97.857,79.674,97.208,79.787,96.372,79.889z"/>
</g>
</svg>
