<?xml version="1.0" encoding="utf-8"?>
<!-- Generator: Adobe Illustrator 17.0.2, SVG Export Plug-In . SVG Version: 6.00 Build 0)  -->
<!DOCTYPE svg PUBLIC "-//W3C//DTD SVG 1.1//EN" "http://www.w3.org/Graphics/SVG/1.1/DTD/svg11.dtd">
<svg version="1.1" id="Layer_1" xmlns="http://www.w3.org/2000/svg" xmlns:xlink="http://www.w3.org/1999/xlink" x="0px" y="0px"
	 width="141.732px" height="141.732px" viewBox="0 0 141.732 141.732" enable-background="new 0 0 141.732 141.732"
	 xml:space="preserve">
<g>
	<path fill="#539de6" d="M107.69,72.625c0-2.671-4.861-4.76-5.429-7.259c-0.587-2.58,2.873-6.567,1.75-8.896
		c-1.142-2.366-6.427-2.14-8.05-4.172c-1.631-2.043-0.241-7.144-2.283-8.775c-2.033-1.623-6.695,0.861-9.062-0.281
		c-2.328-1.123-3.284-6.328-5.865-6.914c-2.499-0.568-5.612,3.693-8.283,3.693c-2.671,0-5.784-4.261-8.283-3.693
		c-2.58,0.586-3.537,5.791-5.865,6.914c-2.367,1.142-7.029-1.342-9.062,0.281c-2.042,1.631-0.652,6.732-2.283,8.775
		c-1.623,2.033-6.909,1.806-8.05,4.173c-1.123,2.328,2.336,6.315,1.75,8.896c-0.568,2.499-5.429,4.588-5.429,7.259
		c0,2.671,4.861,4.76,5.429,7.259c0.586,2.58-2.873,6.567-1.75,8.895c1.142,2.366,6.427,2.14,8.05,4.173
		c1.631,2.042,0.241,7.144,2.283,8.775c2.033,1.623,6.695-0.861,9.062,0.281c2.328,1.123,3.285,6.328,5.865,6.914
		c2.499,0.568,5.612-3.693,8.283-3.693c2.671,0,5.784,4.261,8.283,3.693c2.58-0.586,3.537-5.791,5.865-6.914
		c2.366-1.141,7.029,1.342,9.061-0.281c2.043-1.631,0.652-6.732,2.283-8.775c1.623-2.033,6.909-1.806,8.05-4.172
		c1.123-2.328-2.337-6.315-1.75-8.896C102.828,77.385,107.69,75.296,107.69,72.625z M60.893,80.842H57.49l-6.805-11.917v11.917
		h-3.042V64.404h3.386l6.789,12.031V64.404h3.074V80.842z M71.874,71.143v2.96h-5.54l-0.017,3.781h5.786l0.017,2.958h-8.877V64.404
		h8.86l0.017,2.958h-5.803v3.781H71.874z M88.514,80.842l-2.438,0.003L83.44,69.963l-2.76,10.879h-2.366l-4.847-16.438h3.124
		l2.893,11.556l2.86-11.556h2.186l2.794,11.54l2.86-11.54h3.107L88.514,80.842z"/>
</g>
</svg>
