<?xml version="1.0" encoding="utf-8"?>
<!-- Generator: Adobe Illustrator 17.0.2, SVG Export Plug-In . SVG Version: 6.00 Build 0)  -->
<!DOCTYPE svg PUBLIC "-//W3C//DTD SVG 1.1//EN" "http://www.w3.org/Graphics/SVG/1.1/DTD/svg11.dtd">
<svg version="1.1" id="Layer_1" xmlns="http://www.w3.org/2000/svg" xmlns:xlink="http://www.w3.org/1999/xlink" x="0px" y="0px"
	 width="141.732px" height="141.732px" viewBox="0 0 141.732 141.732" enable-background="new 0 0 141.732 141.732"
	 xml:space="preserve">
<g>
	<path fill="#2c3238" d="M87.667,45.37c-0.331,0.331-0.598,0.698-0.832,1.08c0.205-0.306,0.438-0.598,0.709-0.869
		c2.245-2.246,5.896-2.246,8.142,0c2.246,2.246,2.246,5.897,0.001,8.143c-0.271,0.27-0.563,0.504-0.869,0.709
		c0.382-0.234,0.749-0.501,1.08-0.832c2.269-2.269,2.269-5.962,0-8.23C93.628,43.101,89.936,43.101,87.667,45.37z"/>
	<path fill="#2c3238" d="M105.246,26.799l-28.265-6.522c-4.124-0.953-8.458,0.29-11.456,3.287L24.217,64.872
		c-4.803,4.803-4.803,12.59-0.001,17.393l34.786,34.786c4.803,4.803,12.591,4.803,17.394,0l41.308-41.308
		c2.997-2.997,4.24-7.331,3.286-11.457l-6.522-28.264C113.415,31.437,109.834,27.855,105.246,26.799z M100.184,57.888
		c-4.633,4.633-12.171,4.633-16.804,0c-4.633-4.633-4.633-12.172,0-16.804c4.633-4.633,12.171-4.633,16.804,0
		S104.817,53.255,100.184,57.888z"/>
	<path fill="#2c3238" d="M95.685,45.582c-2.246-2.246-5.896-2.246-8.142,0c-0.271,0.27-0.504,0.563-0.709,0.869
		c-1.374,2.241-1.106,5.212,0.832,7.151c1.938,1.938,4.909,2.206,7.15,0.832c0.306-0.205,0.598-0.438,0.869-0.709
		C97.931,51.479,97.931,47.828,95.685,45.582z"/>
</g>
</svg>
