<?xml version="1.0" encoding="utf-8"?>
<!-- Generator: Adobe Illustrator 17.0.2, SVG Export Plug-In . SVG Version: 6.00 Build 0)  -->
<!DOCTYPE svg PUBLIC "-//W3C//DTD SVG 1.1//EN" "http://www.w3.org/Graphics/SVG/1.1/DTD/svg11.dtd">
<svg version="1.1" id="Layer_1" xmlns="http://www.w3.org/2000/svg" xmlns:xlink="http://www.w3.org/1999/xlink" x="0px" y="0px"
	 width="141.732px" height="141.732px" viewBox="0 0 141.732 141.732" enable-background="new 0 0 141.732 141.732"
	 xml:space="preserve">
<g>
	<path fill="#2c3238" d="M18.669,100.543h30.574c1.296,0,2.347-1.051,2.347-2.347V44.697c0-1.296-1.051-2.347-2.347-2.347H18.669
		c-1.296,0-2.347,1.051-2.347,2.347v53.499C16.322,99.492,17.373,100.543,18.669,100.543z M18.555,61.65h30.24v1.842l-0.504,0.456
		c-5.877,5.31-8.816,10.484-8.816,15.521c0,0.85,0.189,2.073,0.567,3.668H27.639c0.273-5.132,4.539-10.809,12.798-17.033H26.773
		l-8.217,6.328V61.65z"/>
	<path fill="#2c3238" d="M55.579,100.543h30.574c1.296,0,2.347-1.051,2.347-2.347V44.697c0-1.296-1.051-2.347-2.347-2.347H55.579
		c-1.296,0-2.347,1.051-2.347,2.347v53.499C53.232,99.492,54.283,100.543,55.579,100.543z M55.466,61.65h30.24v1.842l-0.504,0.456
		c-5.877,5.31-8.816,10.484-8.816,15.521c0,0.85,0.189,2.073,0.567,3.668H64.549c0.273-5.132,4.539-10.809,12.798-17.033H63.683
		l-8.217,6.328V61.65z"/>
	<path fill="#2c3238" d="M92.49,100.543h30.574c1.296,0,2.347-1.051,2.347-2.347V44.697c0-1.296-1.051-2.347-2.347-2.347H92.49
		c-1.296,0-2.347,1.051-2.347,2.347v53.499C90.143,99.492,91.193,100.543,92.49,100.543z M92.376,61.65h30.24v1.842l-0.504,0.456
		c-5.877,5.31-8.816,10.484-8.816,15.521c0,0.85,0.189,2.073,0.567,3.668H101.46c0.273-5.132,4.539-10.809,12.798-17.033h-13.664
		l-8.217,6.328V61.65z"/>
</g>
</svg>
